<svg id="visual" viewBox="0 0 960 540" width="960" height="540" xmlns="http://www.w3.org/2000/svg" xmlns:xlink="http://www.w3.org/1999/xlink" version="1.1"><rect x="0" y="0" width="960" height="540" fill="#001220"></rect><path d="M0 306L22.8 302.7C45.7 299.3 91.3 292.7 137 292.8C182.7 293 228.3 300 274 302C319.7 304 365.3 301 411.2 299.5C457 298 503 298 548.8 278.2C594.7 258.3 640.3 218.7 686 215C731.7 211.3 777.3 243.7 823 246.2C868.7 248.7 914.3 221.3 937.2 207.7L960 194L960 541L937.2 541C914.3 541 868.7 541 823 541C777.3 541 731.7 541 686 541C640.3 541 594.7 541 548.8 541C503 541 457 541 411.2 541C365.3 541 319.7 541 274 541C228.3 541 182.7 541 137 541C91.3 541 45.7 541 22.8 541L0 541Z" fill="#08d9d6"></path><path d="M0 286L22.8 288.2C45.7 290.3 91.3 294.7 137 295.5C182.7 296.3 228.3 293.7 274 294.3C319.7 295 365.3 299 411.2 290.5C457 282 503 261 548.8 250C594.7 239 640.3 238 686 250.3C731.7 262.7 777.3 288.3 823 297C868.7 305.7 914.3 297.3 937.2 293.2L960 289L960 541L937.2 541C914.3 541 868.7 541 823 541C777.3 541 731.7 541 686 541C640.3 541 594.7 541 548.8 541C503 541 457 541 411.2 541C365.3 541 319.7 541 274 541C228.3 541 182.7 541 137 541C91.3 541 45.7 541 22.8 541L0 541Z" fill="#00c1cf"></path><path d="M0 360L22.8 346.8C45.7 333.7 91.3 307.3 137 293C182.7 278.7 228.3 276.3 274 281.8C319.7 287.3 365.3 300.7 411.2 312.5C457 324.3 503 334.7 548.8 327.7C594.7 320.7 640.3 296.3 686 289C731.7 281.7 777.3 291.3 823 302.3C868.7 313.3 914.3 325.7 937.2 331.8L960 338L960 541L937.2 541C914.3 541 868.7 541 823 541C777.3 541 731.7 541 686 541C640.3 541 594.7 541 548.8 541C503 541 457 541 411.2 541C365.3 541 319.7 541 274 541C228.3 541 182.7 541 137 541C91.3 541 45.7 541 22.8 541L0 541Z" fill="#00a9c3"></path><path d="M0 390L22.8 386.2C45.7 382.3 91.3 374.7 137 369.8C182.7 365 228.3 363 274 367C319.7 371 365.3 381 411.2 377.2C457 373.3 503 355.7 548.8 353.8C594.7 352 640.3 366 686 378C731.7 390 777.3 400 823 401.5C868.7 403 914.3 396 937.2 392.5L960 389L960 541L937.2 541C914.3 541 868.7 541 823 541C777.3 541 731.7 541 686 541C640.3 541 594.7 541 548.8 541C503 541 457 541 411.2 541C365.3 541 319.7 541 274 541C228.3 541 182.7 541 137 541C91.3 541 45.7 541 22.8 541L0 541Z" fill="#0091b3"></path><path d="M0 390L22.8 394.7C45.7 399.3 91.3 408.7 137 409.2C182.7 409.7 228.3 401.3 274 404.7C319.7 408 365.3 423 411.2 430.3C457 437.7 503 437.3 548.8 437.8C594.7 438.3 640.3 439.7 686 433C731.7 426.3 777.3 411.7 823 405.8C868.7 400 914.3 403 937.2 404.5L960 406L960 541L937.2 541C914.3 541 868.7 541 823 541C777.3 541 731.7 541 686 541C640.3 541 594.7 541 548.8 541C503 541 457 541 411.2 541C365.3 541 319.7 541 274 541C228.3 541 182.7 541 137 541C91.3 541 45.7 541 22.8 541L0 541Z" fill="#0079a0"></path><path d="M0 428L22.8 434.8C45.7 441.7 91.3 455.3 137 463.3C182.7 471.3 228.3 473.7 274 470.5C319.7 467.3 365.3 458.7 411.2 455.3C457 452 503 454 548.8 448.7C594.7 443.3 640.3 430.7 686 424.7C731.7 418.7 777.3 419.3 823 424C868.7 428.7 914.3 437.3 937.2 441.7L960 446L960 541L937.2 541C914.3 541 868.7 541 823 541C777.3 541 731.7 541 686 541C640.3 541 594.7 541 548.8 541C503 541 457 541 411.2 541C365.3 541 319.7 541 274 541C228.3 541 182.7 541 137 541C91.3 541 45.7 541 22.8 541L0 541Z" fill="#07628b"></path><path d="M0 491L22.8 490.8C45.7 490.7 91.3 490.3 137 486.8C182.7 483.3 228.3 476.7 274 472.5C319.7 468.3 365.3 466.7 411.2 470.7C457 474.7 503 484.3 548.8 485.5C594.7 486.7 640.3 479.3 686 476C731.7 472.7 777.3 473.3 823 475.8C868.7 478.3 914.3 482.7 937.2 484.8L960 487L960 541L937.2 541C914.3 541 868.7 541 823 541C777.3 541 731.7 541 686 541C640.3 541 594.7 541 548.8 541C503 541 457 541 411.2 541C365.3 541 319.7 541 274 541C228.3 541 182.7 541 137 541C91.3 541 45.7 541 22.8 541L0 541Z" fill="#0f4c75"></path></svg>